<svg xmlns="http://www.w3.org/2000/svg" viewBox="0 0 64 64" role="img" aria-label="ElevateMindStudio">
  <rect width="64" height="64" rx="14" fill="#fffaf0"/>
  <path d="M31 12v40M33 12v40" fill="none" stroke="#a78234" stroke-width="3.2" stroke-linecap="round"/>
  <path d="M29 13c-9 .5-14 6.3-14 13.6 0 1.5.2 2.8.7 4-3.1 1.9-4.9 5.2-4.9 8.8 0 6 4.8 10.8 10.8 10.8 3.8 0 7.4-2 9.4-5.2V18.4c0-3-1-5.4-2-5.4Z" fill="none" stroke="#a78234" stroke-width="3.2" stroke-linecap="round" stroke-linejoin="round"/>
  <path d="M35 13c9 .5 14 6.3 14 13.6 0 1.5-.2 2.8-.7 4 3.1 1.9 4.9 5.2 4.9 8.8 0 6-4.8 10.8-10.8 10.8-3.8 0-7.4-2-9.4-5.2V18.4c0-3 1-5.4 2-5.4Z" fill="none" stroke="#a78234" stroke-width="3.2" stroke-linecap="round" stroke-linejoin="round"/>
  <path d="M16 31c3.2.7 6.4 2 8.4 4.6M18.5 24.8c3.6.5 6.6 1.9 8.7 4.1M19.6 40.8c3.3-.4 6.2.8 8 3.5M48 31c-3.2.7-6.4 2-8.4 4.6M45.5 24.8c-3.6.5-6.6 1.9-8.7 4.1M44.4 40.8c-3.3-.4-6.2.8-8 3.5" fill="none" stroke="#a78234" stroke-width="3.2" stroke-linecap="round"/>
</svg>
